HIERARCHY
ROOT Hips
{
	OFFSET 0.000000 0.000000 0.000000
	CHANNELS 6 Xposition Yposition Zposition Zrotation Yrotation Xrotation 
	JOINT LHipJoint
	{
		OFFSET 0.000000 0.000000 0.000000
		CHANNELS 3 Zrotation Yrotation Xrotation
		JOINT LeftUpLeg
		{
			OFFSET 1.363060 -1.794630 0.839290
			CHANNELS 3 Zrotation Yrotation Xrotation
			JOINT LeftLeg
			{
				OFFSET 2.448110 -6.726130 0.000000
				CHANNELS 3 Zrotation Yrotation Xrotation
				JOINT LeftFoot
				{
					OFFSET 2.562200 -7.039590 0.000000
					CHANNELS 3 Zrotation Yrotation Xrotation
					JOINT LeftToeBase
					{
						OFFSET 0.157640 -0.433110 2.322550
						CHANNELS 3 Zrotation Yrotation Xrotation
						End Site
						{
							OFFSET 0.000000 0.000000 0.000000
						}
					}
				}
			}
		}
	}
	JOINT RHipJoint
	{
		OFFSET 0.000000 0.000000 0.000000
		CHANNELS 3 Zrotation Yrotation Xrotation
		JOINT RightUpLeg
		{
			OFFSET -1.305520 -1.794630 0.839290
			CHANNELS 3 Zrotation Yrotation Xrotation
			JOINT RightLeg
			{
				OFFSET -2.542530 -6.985550 0.000000
				CHANNELS 3 Zrotation Yrotation Xrotation
				JOINT RightFoot
				{
					OFFSET -2.568260 -7.056230 0.000000
					CHANNELS 3 Zrotation Yrotation Xrotation
					JOINT RightToeBase
					{
						OFFSET -0.164730 -0.452590 2.363150
						CHANNELS 3 Zrotation Yrotation Xrotation
						End Site
						{
							OFFSET 0.000000 0.000000 0.000000
						}
					}
				}
			}
		}
	}
	JOINT LowerBack
	{
		OFFSET 0.000000 0.000000 0.000000
		CHANNELS 3 Zrotation Yrotation Xrotation
		JOINT Spine
		{
			OFFSET 0.028270 2.035590 -0.193380
			CHANNELS 3 Zrotation Yrotation Xrotation
			JOINT Spine1
			{
				OFFSET 0.056720 2.048850 -0.042750
				CHANNELS 3 Zrotation Yrotation Xrotation
				JOINT Neck
				{
					OFFSET 0.000000 0.000000 0.000000
					CHANNELS 3 Zrotation Yrotation Xrotation
					JOINT Neck1
					{
						OFFSET -0.054170 1.746240 0.172020
						CHANNELS 3 Zrotation Yrotation Xrotation
						JOINT Head
						{
							OFFSET 0.104070 1.761360 -0.123970
							CHANNELS 3 Zrotation Yrotation Xrotation
							End Site
							{
								OFFSET 0.000000 0.000000 0.000000
							}
						}
					}
				}
				JOINT LeftShoulder
				{
					OFFSET 0.000000 0.000000 0.000000
					CHANNELS 3 Zrotation Yrotation Xrotation
					JOINT LeftArm
					{
						OFFSET 3.362410 1.200890 -0.311210
						CHANNELS 3 Zrotation Yrotation Xrotation
						JOINT LeftForeArm
						{
							OFFSET 4.983000 -0.000000 -0.000000
							CHANNELS 3 Zrotation Yrotation Xrotation
							JOINT LeftHand
							{
								OFFSET 3.483560 -0.000000 -0.000000
								CHANNELS 3 Zrotation Yrotation Xrotation
								JOINT LeftFingerBase
								{
									OFFSET 0.000000 0.000000 0.000000
									CHANNELS 3 Zrotation Yrotation Xrotation
									JOINT LeftHandIndex1
									{
										OFFSET 0.715260 -0.000000 -0.000000
										CHANNELS 3 Zrotation Yrotation Xrotation
										End Site
										{
											OFFSET 0.000000 0.000000 0.000000
										}
									}
								}
								JOINT LThumb
								{
									OFFSET 0.000000 0.000000 0.000000
									CHANNELS 3 Zrotation Yrotation Xrotation
									End Site
									{
										OFFSET 0.000000 0.000000 0.000000
									}
								}
							}
						}
					}
				}
				JOINT RightShoulder
				{
					OFFSET 0.000000 0.000000 0.000000
					CHANNELS 3 Zrotation Yrotation Xrotation
					JOINT RightArm
					{
						OFFSET -3.136600 1.374050 -0.404650
						CHANNELS 3 Zrotation Yrotation Xrotation
						JOINT RightForeArm
						{
							OFFSET -5.241900 -0.000000 -0.000000
							CHANNELS 3 Zrotation Yrotation Xrotation
							JOINT RightHand
							{
								OFFSET -3.444170 -0.000000 -0.000000
								CHANNELS 3 Zrotation Yrotation Xrotation
								JOINT RightFingerBase
								{
									OFFSET 0.000000 0.000000 0.000000
									CHANNELS 3 Zrotation Yrotation Xrotation
									JOINT RightHandIndex1
									{
										OFFSET -0.622530 -0.000000 -0.000000
										CHANNELS 3 Zrotation Yrotation Xrotation
										End Site
										{
											OFFSET 0.000000 0.000000 0.000000
										}
									}
								}
								JOINT RThumb
								{
									OFFSET 0.000000 0.000000 0.000000
									CHANNELS 3 Zrotation Yrotation Xrotation
									End Site
									{
										OFFSET 0.000000 0.000000 0.000000
									}
								}
							}
						}
					}
				}
			}
		}
	}
}
MOTION
Frames: 11
Frame Time: 0.008333
25.888980 17.001894 2.771709 68.390315 -88.559332 -45.709215 -7.937671 2.011390 5.502167 -10.354915 -7.690364 -43.017030 -2.360323 0.202623 24.375738 1.382158 5.549714 -7.492706 0.302200 -0.000000 -30.180400 12.224099 -3.751627 0.912044 3.455678 -8.134072 -7.518915 0.159847 -1.464869 24.564841 -0.186289 5.130497 23.577107 2.659900 -0.000000 -94.095300 -4.791880 -1.039094 -7.175060 -2.007051 -0.894036 -4.256798 -7.255932 -0.929612 0.402063 9.392287 -8.936011 -9.181394 -4.186887 -0.302046 -0.518162 0.000000 0.000000 0.000000 0.229883 12.314650 1.699061 -59.971537 8.242600 8.865910 -0.922045 -75.309614 -0.012180 7.496759 -1.562114 -0.113121 -0.161100 0.160214 -0.000000 0.000000 0.000000 0.000000 0.000000 0.000000 0.000000 17.918607 -2.288030 0.694237 67.659054 20.946085 34.996212 0.562529 79.966919 0.033568 4.582370 7.318931 0.313127 -0.020795 -0.424191 -0.000000 0.000000 0.000000 0.000000 0.000000 0.000000 0.000000 
25.723265 17.001051 2.776894 69.791652 -88.466162 -47.345873 -7.920112 2.079307 5.429449 -10.630385 -7.482662 -42.289964 -2.358814 0.228111 24.842188 1.410811 5.651925 -7.888118 0.239500 0.000000 -29.450400 12.352366 -3.737935 0.879429 3.134697 -8.602706 -7.797854 0.007277 -1.526210 25.896470 -0.318778 5.266975 25.349809 2.943600 -0.000000 -93.400601 -5.104664 -1.051022 -7.115467 -2.086965 -0.873328 -4.252847 -7.342667 -0.908338 0.366419 9.587011 -8.964022 -9.160277 -4.170832 -0.301089 -0.510049 0.000000 0.000000 0.000000 -0.001083 12.378113 1.703721 -59.376475 7.666724 9.540143 -0.963484 -74.730776 -0.011800 7.557830 -1.603434 -0.116612 -0.163730 0.157609 -0.000000 0.000000 0.000000 0.000000 0.000000 0.000000 0.000000 18.047159 -2.322661 0.616972 68.147220 20.344932 34.472005 0.600047 79.348362 0.032230 4.372809 7.241613 0.295750 -0.018371 -0.421690 -0.000000 0.000000 0.000000 0.000000 0.000000 0.000000 0.000000 
25.558572 17.003975 2.782283 71.608890 -88.370568 -49.399153 -7.898483 2.137252 5.359122 -10.898130 -7.289182 -41.422389 -2.372710 0.222349 25.074052 1.441160 5.737021 -8.388319 0.159500 0.000000 -28.957901 12.476320 -3.711877 0.845764 2.809338 -9.048297 -8.125926 -0.134727 -1.580253 27.287549 -0.464523 5.362585 27.138145 3.213900 0.000000 -92.004500 -5.404141 -1.057635 -7.050878 -2.163464 -0.847942 -4.247649 -7.422165 -0.882275 0.331747 9.760318 -8.990022 -9.131550 -4.154420 -0.300166 -0.500197 0.000000 0.000000 0.000000 -0.239418 12.428527 1.706972 -58.838975 7.036896 10.188258 -1.007732 -74.107825 -0.011378 7.595167 -1.653347 -0.120506 -0.165995 0.155312 -0.000000 0.000000 0.000000 0.000000 0.000000 0.000000 0.000000 18.155310 -2.361372 0.536782 68.638629 19.738190 33.906813 0.638673 78.669059 0.030474 4.094693 7.131739 0.272772 -0.014937 -0.418239 0.000000 0.000000 0.000000 0.000000 0.000000 0.000000 0.000000 
25.394556 17.010137 2.788898 73.637401 -88.299552 -51.659417 -7.882753 2.183447 5.293889 -11.123491 -7.098351 -40.451864 -2.395126 0.191130 25.108727 1.471234 5.798984 -8.962223 0.066099 0.000000 -28.691600 12.583386 -3.678677 0.817294 2.521501 -9.438035 -8.495995 -0.260011 -1.626614 28.717057 -0.618265 5.360614 28.853143 3.422900 -0.000000 -89.913900 -5.658020 -1.055217 -6.992411 -2.229275 -0.817630 -4.243246 -7.492473 -0.851336 0.299282 9.907930 -9.008002 -9.094565 -4.136970 -0.299259 -0.488026 0.000000 0.000000 0.000000 -0.492358 12.472002 1.707297 -58.374022 6.368605 10.798471 -1.053842 -73.455157 -0.010927 7.608677 -1.709519 -0.124401 -0.167890 0.153356 -0.000000 0.000000 0.000000 0.000000 0.000000 0.000000 0.000000 18.232554 -2.396485 0.455200 69.112589 19.131118 33.314146 0.676504 77.951771 0.028414 3.765765 7.000841 0.246294 -0.010837 -0.414012 0.000000 0.000000 0.000000 0.000000 0.000000 0.000000 0.000000 
25.231280 17.019056 2.796395 76.068212 -88.239039 -54.326838 -7.867894 2.219382 5.232688 -11.321049 -6.929061 -39.365712 -2.422282 0.136677 24.955638 1.503668 5.866299 -9.564223 -0.033700 0.000000 -28.610800 12.679506 -3.638693 0.786889 2.245635 -9.793225 -8.889536 -0.365425 -1.668857 30.173304 -0.773642 5.237516 30.392002 3.539299 0.000000 -87.255300 -5.884576 -1.048763 -6.931268 -2.287682 -0.785569 -4.236829 -7.552691 -0.818599 0.272442 10.040301 -9.025368 -9.051345 -4.118997 -0.298370 -0.474250 0.000000 0.000000 0.000000 -0.742195 12.506767 1.703755 -57.997383 5.674056 11.353959 -1.100930 -72.782994 -0.010469 7.598841 -1.771763 -0.128400 -0.169328 0.151826 -0.000000 0.000000 0.000000 0.000000 0.000000 0.000000 0.000000 18.295670 -2.438019 0.376807 69.546717 18.551647 32.723582 0.712949 77.213724 0.026151 3.400394 6.862949 0.218114 -0.006190 -0.409281 0.000000 0.000000 0.000000 0.000000 0.000000 0.000000 0.000000 
25.068278 17.030212 2.805543 78.723045 -88.209633 -57.217689 -7.863319 2.244271 5.177162 -11.464790 -6.765769 -38.206063 -2.447345 0.065678 24.661386 1.537079 5.939416 -10.161515 -0.135700 -0.000000 -28.675400 12.754770 -3.599372 0.758708 2.018752 -10.094768 -9.304097 -0.449973 -1.710052 31.638254 -0.925108 4.923616 31.657415 3.504600 -0.000001 -84.172700 -6.056928 -1.037021 -6.876292 -2.332520 -0.753380 -4.229919 -7.601834 -0.785817 0.252515 10.155369 -9.037202 -9.001765 -4.099735 -0.297460 -0.458478 0.000000 0.000000 0.000000 -0.997392 12.541387 1.695403 -57.714501 4.963120 11.848010 -1.148140 -72.105444 -0.010027 7.570362 -1.836549 -0.132200 -0.170410 0.150755 -0.000000 0.000000 0.000000 0.000000 0.000000 0.000000 0.000000 18.335794 -2.479983 0.301985 69.926021 17.999942 32.146423 0.746945 76.475720 0.023861 3.029736 6.731019 0.190529 -0.001525 -0.404191 0.000000 0.000000 0.000000 0.000000 0.000000 0.000000 0.000000 
24.905929 17.043270 2.816013 81.690755 -88.198912 -60.430830 -7.866423 2.260011 5.124456 -11.569210 -6.613717 -36.970457 -2.467181 -0.018035 24.244783 1.573033 6.041174 -10.716134 -0.234600 -0.000001 -28.832300 12.813369 -3.562229 0.726257 1.823841 -10.361906 -9.724814 -0.515948 -1.755085 33.097500 -1.068880 4.384186 32.568790 3.286200 -0.000000 -80.955100 -6.189198 -1.024792 -6.818032 -2.366250 -0.724527 -4.220033 -7.639813 -0.756400 0.241149 10.262284 -9.050963 -8.947306 -4.079569 -0.296526 -0.441235 0.000000 0.000000 0.000000 -1.246917 12.571789 1.681643 -57.530906 4.248883 12.266366 -1.194393 -71.435833 -0.009626 7.527567 -1.902221 -0.135902 -0.171107 0.150194 -0.000000 0.000000 0.000000 0.000000 0.000000 0.000000 0.000000 18.366444 -2.531923 0.234098 70.233974 17.496084 31.606799 0.778675 75.750949 0.021685 2.675367 6.616767 0.165339 0.002944 -0.398929 -0.000000 0.000000 0.000000 0.000000 0.000000 0.000000 0.000000 
24.743731 17.057838 2.828329 84.830251 -88.220548 -63.817470 -7.885694 2.266845 5.075148 -11.618268 -6.452691 -35.701026 -2.477514 -0.108198 23.750385 1.609471 6.167714 -11.206207 -0.327201 -0.000000 -29.043200 12.848006 -3.533912 0.693218 1.690947 -10.585124 -10.157213 -0.566698 -1.807048 34.539561 -1.202836 3.572325 33.061266 2.850801 0.000000 -77.737700 -6.261797 -1.012702 -6.763858 -2.384414 -0.701693 -4.208372 -7.666473 -0.733099 0.239590 10.360042 -9.063911 -8.888495 -4.057736 -0.295514 -0.422381 0.000000 0.000000 0.000000 -1.500243 12.607240 1.662132 -57.442172 3.534026 12.608293 -1.239069 -70.785942 -0.009296 7.478878 -1.964566 -0.139203 -0.171597 0.150161 -0.000000 0.000000 0.000000 0.000000 0.000000 0.000000 0.000000 18.380318 -2.590632 0.172264 70.462706 17.035930 31.108032 0.807904 75.054651 0.019786 2.368884 6.528046 0.144444 0.006727 -0.393542 -0.000000 0.000000 0.000000 0.000000 0.000000 0.000000 0.000000 
24.581597 17.073666 2.842073 88.181844 -88.262459 -67.423766 -7.919806 2.267220 5.025151 -11.627921 -6.276799 -34.398996 -2.477994 -0.201249 23.194601 1.645876 6.326490 -11.609925 -0.410400 0.000000 -29.272300 12.861912 -3.514496 0.655126 1.606583 -10.780156 -10.590627 -0.606478 -1.868384 35.948113 -1.327578 2.483219 33.106663 2.203100 0.000000 -74.838100 -6.288052 -1.005072 -6.704796 -2.389581 -0.687937 -4.193203 -7.682479 -0.718957 0.247128 10.455134 -9.079935 -8.825305 -4.034644 -0.294439 -0.402048 0.000000 0.000000 0.000000 -1.750533 12.640092 1.637300 -57.444139 2.830211 12.864385 -1.281160 -70.169131 -0.009058 7.430675 -2.021156 -0.142105 -0.171902 0.150680 -0.000000 0.000000 0.000000 0.000000 0.000000 0.000000 0.000000 18.386333 -2.661582 0.118223 70.604868 16.626270 30.656329 0.835122 74.395504 0.018268 2.129074 6.468483 0.128543 0.009613 -0.388100 -0.000000 0.000000 0.000000 0.000000 0.000000 0.000000 0.000000 
24.419720 17.090443 2.857519 91.658579 -88.331587 -71.155388 -7.974804 2.262190 4.974521 -11.591712 -6.065254 -33.099529 -2.468022 -0.292867 22.609007 1.679075 6.502699 -11.920859 -0.482100 0.000000 -29.504901 12.850401 -3.507312 0.615227 1.589915 -10.945440 -11.036922 -0.638050 -1.939866 37.318296 -1.443483 1.128690 32.680958 1.366900 0.000000 -72.197800 -6.257790 -1.003332 -6.646579 -2.379549 -0.685713 -4.175510 -7.688266 -0.716435 0.264544 10.546944 -9.099721 -8.758894 -4.009647 -0.293245 -0.380369 0.000000 0.000000 0.000000 -2.006337 12.676655 1.607117 -57.524811 2.135775 13.039506 -1.320183 -69.595245 -0.008940 7.391977 -2.068195 -0.144504 -0.172198 0.151749 -0.000000 0.000000 0.000000 0.000000 0.000000 0.000000 0.000000 18.379276 -2.745355 0.070585 70.659057 16.262638 30.245416 0.860553 73.781395 0.017209 1.973793 6.438215 0.118434 0.011362 -0.382566 -0.000000 0.000000 0.000000 0.000000 0.000000 0.000000 0.000000 
24.258202 17.107962 2.874269 95.274344 -88.418316 -75.030318 -8.049877 2.253968 4.919471 -11.523221 -5.806903 -31.806115 -2.449826 -0.380844 22.003010 1.706738 6.686339 -12.135020 -0.540700 0.000000 -29.736099 12.815392 -3.510378 0.571355 1.630644 -11.092385 -11.490781 -0.663338 -2.020663 38.633089 -1.553244 -0.446630 31.804985 0.396900 -0.000000 -70.004800 -6.182267 -1.010264 -6.582595 -2.356758 -0.696684 -4.154532 -7.684860 -0.727201 0.289451 10.638750 -9.123618 -8.688251 -3.983111 -0.291958 -0.357199 0.000000 0.000000 0.000000 -2.262958 12.708368 1.572640 -57.674095 1.457478 13.131584 -1.355372 -69.074498 -0.008963 7.369336 -2.104466 -0.146601 -0.172536 0.153386 -0.000000 0.000000 0.000000 0.000000 0.000000 0.000000 0.000000 18.363014 -2.842840 0.029536 70.625653 15.941830 29.862658 0.884455 73.216994 0.016617 1.907987 6.432747 0.114317 0.011919 -0.376933 -0.000000 0.000000 0.000000 0.000000 0.000000 0.000000 0.000000 
